{"title":"Thrasher - King of the Road [2007][skateboarding].avi","uid":4762177,"size":714336256,"categoryP":"video","categoryS":"movies","magnet":"?xt=urn:btih:47a96582239352c5da39d6e2953ed718b334e680&amp;dn=Thrasher+-+King+of+the+Road+%5B2007%5D%5Bskateboarding%5D.avi&amp;tr=udp%3A%2F%2Ftracker.openbittorrent.com%3A80&amp;tr=udp%3A%2F%2Fopen.demonii.com%3A1337&amp;tr=udp%3A%2F%2Ftracker.coppersurfer.tk%3A6969&amp;tr=udp%3A%2F%2Fexodus.desync.com%3A6969","seeders":2,"leechers":1,"uploader":"highateus","files":1,"time":1236734772,"description":"Ride along as four sick teams race their way across the US skating, filming, causing mayhem, and earning points for a chance to be Thrasher Magazine's 2007 King of the Road!\n\nFOUNDATION\nSIERRA FELLERS, DON NGUYEN, ABDIAS RIVERA, DAVID REYES, ANGEL RAMIREZ with DANIEL HANEY.\n\nBLIND\nRONNIE CREAGER, JAKE DUNCOMBE, DANILO CEREZINI, JAMES CRAIG, MORGAN SMITH with JOSH KASPER.\n\nBLACK LABEL\nADAM ALFARO, SHURIKEN SHANNON, SLASH, CHET CHILDRESS, CHRIS TROY, with KRISTIAN SVITAK.\n\nZOO YORK\nZERED BASSETT, AARON SUSKI, ANTHONY SHETLER, LAMARE HEMMINGS, RANDON WESTGATE, with RICKY OYOLA.\n\n\n\nGeneral\n\nComplete name                    : Thrasher - King of the Road [2007].avi\nFormat                           : AVI\nFormat/Info                      : Audio Video Interleave\nFile size                        : 681 MiB\nDuration                         : 57mn 47s\nOverall bit rate                 : 1648 Kbps\n\n\n\nVideo\n\nFormat                           : MPEG-4 Visual\nFormat profile                   : Streaming Video@L1\nFormat settings, BVOP            : Yes\nFormat settings, QPel            : No\nFormat settings, GMC             : No warppoints\nFormat settings, Matrix          : Default\nMuxing mode                      : Packed bitstream\nCodec ID                         : XVID\nCodec ID/Hint                    : XviD\nDuration                         : 57mn 47s\nBit rate                         : 1445 Kbps\nWidth                            : 720 pixels\nHeight                           : 480 pixels\nDisplay aspect ratio             : 1.500\nFrame rate                       : 29.970 fps\nStandard                         : NTSC\nResolution                       : 24 bits\nColorimetry                      : 4:2:0\nScan type                        : Progressive\nBits/(Pixel*Frame)               : 0.139\nStream size                      : 597 MiB (88%)\nWriting library                  : XviD 1.1.2 (UTC 2006-11-01)\n\n\n\nAudio\n\nFormat                           : MPEG Audio\nFormat version                   : Version 1\nFormat profile                   : Layer 3\nCodec ID                         : 55\nCodec ID/Hint                    : MP3\nDuration                         : 57mn 46s\nBit rate mode                    : Constant\nBit rate                         : 192 Kbps\nChannel(s)                       : 2 channels\nSampling rate                    : 44.1 KHz\nResolution                       : 16 bits\nVideo delay                      : 26ms\nStream size                      : 79.4 MiB (12%)\nAlignment                        : Split accross interleaves\nInterleave, duration             : 33 ms (1.00 video frame)\nTitle                            : Audio Stream\nWriting library                  : LAME3.92\n","torrent":{"xt":"urn:btih:47a96582239352c5da39d6e2953ed718b334e680","amp;dn":"Thrasher+-+King+of+the+Road+%5B2007%5D%5Bskateboarding%5D.avi","amp;tr":["udp%3A%2F%2Ftracker.openbittorrent.com%3A80","udp%3A%2F%2Fopen.demonii.com%3A1337","udp%3A%2F%2Ftracker.coppersurfer.tk%3A6969","udp%3A%2F%2Fexodus.desync.com%3A6969"],"infoHash":"47a96582239352c5da39d6e2953ed718b334e680","infoHashBuffer":{"type":"Buffer","data":[71,169,101,130,35,147,82,197,218,57,214,226,149,62,215,24,179,52,230,128]},"announce":[],"urlList":[]}}